<mxfile host="app.diagrams.net" modified="2022-10-22T15:42:41.473Z" agent="5.0 (Windows NT 10.0; Win64; x64) AppleWebKit/537.36 (KHTML, like Gecko) Chrome/106.0.0.0 Safari/537.36" etag="1xDQPxmmTuBB2UUMMQZc" version="20.5.1" type="github">
  <diagram id="D4FRn-X8v1xza_RWKSgD" name="Página-1">
    <mxGraphModel dx="2479" dy="845" grid="1" gridSize="10" guides="1" tooltips="1" connect="1" arrows="1" fold="1" page="1" pageScale="1" pageWidth="827" pageHeight="1169" math="0" shadow="0">
      <root>
        <mxCell id="0" />
        <mxCell id="1" parent="0" />
        <mxCell id="p10tmFN7mJ3A4gBp0qT7-28" value="Libro" style="rounded=0;whiteSpace=wrap;html=1;" vertex="1" parent="1">
          <mxGeometry x="100" y="180" width="120" height="60" as="geometry" />
        </mxCell>
        <mxCell id="p10tmFN7mJ3A4gBp0qT7-33" style="edgeStyle=orthogonalEdgeStyle;rounded=0;orthogonalLoop=1;jettySize=auto;html=1;" edge="1" parent="1" source="p10tmFN7mJ3A4gBp0qT7-29" target="p10tmFN7mJ3A4gBp0qT7-28">
          <mxGeometry relative="1" as="geometry">
            <mxPoint x="170" y="170" as="targetPoint" />
          </mxGeometry>
        </mxCell>
        <mxCell id="p10tmFN7mJ3A4gBp0qT7-29" value="Nombre" style="rounded=1;whiteSpace=wrap;html=1;" vertex="1" parent="1">
          <mxGeometry x="30" y="120" width="80" height="40" as="geometry" />
        </mxCell>
        <mxCell id="p10tmFN7mJ3A4gBp0qT7-32" style="edgeStyle=orthogonalEdgeStyle;rounded=0;orthogonalLoop=1;jettySize=auto;html=1;exitX=0;exitY=0.5;exitDx=0;exitDy=0;entryX=0.5;entryY=0;entryDx=0;entryDy=0;" edge="1" parent="1" source="p10tmFN7mJ3A4gBp0qT7-30" target="p10tmFN7mJ3A4gBp0qT7-28">
          <mxGeometry relative="1" as="geometry">
            <mxPoint x="170" y="140" as="targetPoint" />
          </mxGeometry>
        </mxCell>
        <mxCell id="p10tmFN7mJ3A4gBp0qT7-30" value="N° de edicion" style="rounded=1;whiteSpace=wrap;html=1;" vertex="1" parent="1">
          <mxGeometry x="220" y="120" width="80" height="30" as="geometry" />
        </mxCell>
        <mxCell id="p10tmFN7mJ3A4gBp0qT7-34" style="edgeStyle=orthogonalEdgeStyle;rounded=0;orthogonalLoop=1;jettySize=auto;html=1;entryX=0.25;entryY=0;entryDx=0;entryDy=0;" edge="1" parent="1" source="p10tmFN7mJ3A4gBp0qT7-31" target="p10tmFN7mJ3A4gBp0qT7-28">
          <mxGeometry relative="1" as="geometry" />
        </mxCell>
        <mxCell id="p10tmFN7mJ3A4gBp0qT7-31" value="&lt;u&gt;Id&lt;/u&gt;" style="rounded=1;whiteSpace=wrap;html=1;" vertex="1" parent="1">
          <mxGeometry x="100" y="50" width="70" height="30" as="geometry" />
        </mxCell>
        <mxCell id="p10tmFN7mJ3A4gBp0qT7-35" value="Presta" style="rhombus;whiteSpace=wrap;html=1;" vertex="1" parent="1">
          <mxGeometry x="360" y="160" width="80" height="80" as="geometry" />
        </mxCell>
        <mxCell id="p10tmFN7mJ3A4gBp0qT7-36" value="Estudiante" style="rounded=0;whiteSpace=wrap;html=1;" vertex="1" parent="1">
          <mxGeometry x="580" y="160" width="120" height="60" as="geometry" />
        </mxCell>
        <mxCell id="p10tmFN7mJ3A4gBp0qT7-43" style="edgeStyle=orthogonalEdgeStyle;rounded=0;orthogonalLoop=1;jettySize=auto;html=1;entryX=0;entryY=0.5;entryDx=0;entryDy=0;" edge="1" parent="1" source="p10tmFN7mJ3A4gBp0qT7-37" target="p10tmFN7mJ3A4gBp0qT7-36">
          <mxGeometry relative="1" as="geometry" />
        </mxCell>
        <mxCell id="p10tmFN7mJ3A4gBp0qT7-37" value="&lt;u&gt;N#&amp;nbsp; de carnet&lt;/u&gt;" style="rounded=1;whiteSpace=wrap;html=1;" vertex="1" parent="1">
          <mxGeometry x="530" y="80" width="70" height="60" as="geometry" />
        </mxCell>
        <mxCell id="p10tmFN7mJ3A4gBp0qT7-41" style="edgeStyle=orthogonalEdgeStyle;rounded=0;orthogonalLoop=1;jettySize=auto;html=1;" edge="1" parent="1" source="p10tmFN7mJ3A4gBp0qT7-38" target="p10tmFN7mJ3A4gBp0qT7-36">
          <mxGeometry relative="1" as="geometry" />
        </mxCell>
        <mxCell id="p10tmFN7mJ3A4gBp0qT7-38" value="Nombre" style="rounded=1;whiteSpace=wrap;html=1;" vertex="1" parent="1">
          <mxGeometry x="610" y="40" width="80" height="60" as="geometry" />
        </mxCell>
        <mxCell id="p10tmFN7mJ3A4gBp0qT7-42" style="edgeStyle=orthogonalEdgeStyle;rounded=0;orthogonalLoop=1;jettySize=auto;html=1;" edge="1" parent="1" source="p10tmFN7mJ3A4gBp0qT7-40" target="p10tmFN7mJ3A4gBp0qT7-36">
          <mxGeometry relative="1" as="geometry" />
        </mxCell>
        <mxCell id="p10tmFN7mJ3A4gBp0qT7-40" value="Carrera" style="rounded=1;whiteSpace=wrap;html=1;" vertex="1" parent="1">
          <mxGeometry x="710" y="90" width="80" height="60" as="geometry" />
        </mxCell>
        <mxCell id="p10tmFN7mJ3A4gBp0qT7-45" value="" style="endArrow=none;html=1;rounded=0;exitX=1;exitY=0.5;exitDx=0;exitDy=0;entryX=0;entryY=0.5;entryDx=0;entryDy=0;" edge="1" parent="1" source="p10tmFN7mJ3A4gBp0qT7-28" target="p10tmFN7mJ3A4gBp0qT7-35">
          <mxGeometry width="50" height="50" relative="1" as="geometry">
            <mxPoint x="250" y="240" as="sourcePoint" />
            <mxPoint x="300" y="190" as="targetPoint" />
          </mxGeometry>
        </mxCell>
        <mxCell id="p10tmFN7mJ3A4gBp0qT7-46" value="" style="endArrow=none;html=1;rounded=0;exitX=1;exitY=0.5;exitDx=0;exitDy=0;entryX=0;entryY=0.5;entryDx=0;entryDy=0;" edge="1" parent="1" source="p10tmFN7mJ3A4gBp0qT7-35" target="p10tmFN7mJ3A4gBp0qT7-36">
          <mxGeometry width="50" height="50" relative="1" as="geometry">
            <mxPoint x="460" y="270" as="sourcePoint" />
            <mxPoint x="510" y="220" as="targetPoint" />
          </mxGeometry>
        </mxCell>
        <mxCell id="p10tmFN7mJ3A4gBp0qT7-47" value="M:1" style="text;html=1;strokeColor=none;fillColor=none;align=center;verticalAlign=middle;whiteSpace=wrap;rounded=0;" vertex="1" parent="1">
          <mxGeometry x="370" y="130" width="60" height="30" as="geometry" />
        </mxCell>
        <mxCell id="p10tmFN7mJ3A4gBp0qT7-48" value="Clientes" style="rounded=0;whiteSpace=wrap;html=1;" vertex="1" parent="1">
          <mxGeometry x="-1120" y="440" width="120" height="60" as="geometry" />
        </mxCell>
        <mxCell id="p10tmFN7mJ3A4gBp0qT7-61" style="edgeStyle=orthogonalEdgeStyle;rounded=0;orthogonalLoop=1;jettySize=auto;html=1;entryX=0.25;entryY=0;entryDx=0;entryDy=0;" edge="1" parent="1" source="p10tmFN7mJ3A4gBp0qT7-50" target="p10tmFN7mJ3A4gBp0qT7-48">
          <mxGeometry relative="1" as="geometry" />
        </mxCell>
        <mxCell id="p10tmFN7mJ3A4gBp0qT7-50" value="&lt;u&gt;Dui&lt;/u&gt;" style="rounded=1;whiteSpace=wrap;html=1;" vertex="1" parent="1">
          <mxGeometry x="-790" y="220" width="50" height="60" as="geometry" />
        </mxCell>
        <mxCell id="p10tmFN7mJ3A4gBp0qT7-62" style="edgeStyle=orthogonalEdgeStyle;rounded=0;orthogonalLoop=1;jettySize=auto;html=1;" edge="1" parent="1" source="p10tmFN7mJ3A4gBp0qT7-51" target="p10tmFN7mJ3A4gBp0qT7-48">
          <mxGeometry relative="1" as="geometry" />
        </mxCell>
        <mxCell id="p10tmFN7mJ3A4gBp0qT7-51" value="Nombre" style="rounded=1;whiteSpace=wrap;html=1;" vertex="1" parent="1">
          <mxGeometry x="-730" y="220" width="50" height="60" as="geometry" />
        </mxCell>
        <mxCell id="p10tmFN7mJ3A4gBp0qT7-63" style="edgeStyle=orthogonalEdgeStyle;rounded=0;orthogonalLoop=1;jettySize=auto;html=1;entryX=0.608;entryY=0.017;entryDx=0;entryDy=0;entryPerimeter=0;" edge="1" parent="1" source="p10tmFN7mJ3A4gBp0qT7-52" target="p10tmFN7mJ3A4gBp0qT7-48">
          <mxGeometry relative="1" as="geometry" />
        </mxCell>
        <mxCell id="p10tmFN7mJ3A4gBp0qT7-52" value="Apellido" style="rounded=1;whiteSpace=wrap;html=1;" vertex="1" parent="1">
          <mxGeometry x="-666" y="220" width="66" height="60" as="geometry" />
        </mxCell>
        <mxCell id="p10tmFN7mJ3A4gBp0qT7-60" style="edgeStyle=orthogonalEdgeStyle;rounded=0;orthogonalLoop=1;jettySize=auto;html=1;" edge="1" parent="1" source="p10tmFN7mJ3A4gBp0qT7-53" target="p10tmFN7mJ3A4gBp0qT7-48">
          <mxGeometry relative="1" as="geometry" />
        </mxCell>
        <mxCell id="p10tmFN7mJ3A4gBp0qT7-53" value="Tel_Contacto" style="rounded=1;whiteSpace=wrap;html=1;" vertex="1" parent="1">
          <mxGeometry x="-860" y="310" width="90" height="60" as="geometry" />
        </mxCell>
        <mxCell id="p10tmFN7mJ3A4gBp0qT7-59" style="edgeStyle=orthogonalEdgeStyle;rounded=0;orthogonalLoop=1;jettySize=auto;html=1;entryX=0;entryY=0.5;entryDx=0;entryDy=0;" edge="1" parent="1" source="p10tmFN7mJ3A4gBp0qT7-54" target="p10tmFN7mJ3A4gBp0qT7-48">
          <mxGeometry relative="1" as="geometry" />
        </mxCell>
        <mxCell id="p10tmFN7mJ3A4gBp0qT7-54" value="Direccion" style="rounded=1;whiteSpace=wrap;html=1;" vertex="1" parent="1">
          <mxGeometry x="-860" y="400" width="70" height="40" as="geometry" />
        </mxCell>
        <mxCell id="p10tmFN7mJ3A4gBp0qT7-58" style="edgeStyle=orthogonalEdgeStyle;rounded=0;orthogonalLoop=1;jettySize=auto;html=1;entryX=0.5;entryY=1;entryDx=0;entryDy=0;" edge="1" parent="1" source="p10tmFN7mJ3A4gBp0qT7-55" target="p10tmFN7mJ3A4gBp0qT7-48">
          <mxGeometry relative="1" as="geometry" />
        </mxCell>
        <mxCell id="p10tmFN7mJ3A4gBp0qT7-55" value="Email" style="rounded=1;whiteSpace=wrap;html=1;" vertex="1" parent="1">
          <mxGeometry x="-750" y="400" width="80" height="60" as="geometry" />
        </mxCell>
        <mxCell id="p10tmFN7mJ3A4gBp0qT7-57" style="edgeStyle=orthogonalEdgeStyle;rounded=0;orthogonalLoop=1;jettySize=auto;html=1;entryX=0.808;entryY=1.017;entryDx=0;entryDy=0;entryPerimeter=0;" edge="1" parent="1" source="p10tmFN7mJ3A4gBp0qT7-56" target="p10tmFN7mJ3A4gBp0qT7-48">
          <mxGeometry relative="1" as="geometry" />
        </mxCell>
        <mxCell id="p10tmFN7mJ3A4gBp0qT7-56" value="N#_tarjetas_credito" style="rounded=1;whiteSpace=wrap;html=1;" vertex="1" parent="1">
          <mxGeometry x="-660" y="410" width="110" height="60" as="geometry" />
        </mxCell>
        <mxCell id="p10tmFN7mJ3A4gBp0qT7-64" value="Registro" style="rounded=1;whiteSpace=wrap;html=1;" vertex="1" parent="1">
          <mxGeometry x="-870" y="210" width="75" height="60" as="geometry" />
        </mxCell>
        <mxCell id="p10tmFN7mJ3A4gBp0qT7-66" style="edgeStyle=orthogonalEdgeStyle;rounded=0;orthogonalLoop=1;jettySize=auto;html=1;entryX=0;entryY=0.75;entryDx=0;entryDy=0;" edge="1" parent="1" source="p10tmFN7mJ3A4gBp0qT7-65" target="p10tmFN7mJ3A4gBp0qT7-48">
          <mxGeometry relative="1" as="geometry">
            <Array as="points">
              <mxPoint x="-760" y="355" />
            </Array>
          </mxGeometry>
        </mxCell>
        <mxCell id="p10tmFN7mJ3A4gBp0qT7-65" value="N# de cliente" style="rounded=1;whiteSpace=wrap;html=1;" vertex="1" parent="1">
          <mxGeometry x="-875" y="470" width="120" height="60" as="geometry" />
        </mxCell>
        <mxCell id="p10tmFN7mJ3A4gBp0qT7-68" value="Tipos de cliente" style="rounded=0;whiteSpace=wrap;html=1;strokeColor=default;" vertex="1" parent="1">
          <mxGeometry x="-1410" y="280" width="120" height="60" as="geometry" />
        </mxCell>
        <mxCell id="p10tmFN7mJ3A4gBp0qT7-78" style="edgeStyle=orthogonalEdgeStyle;rounded=0;orthogonalLoop=1;jettySize=auto;html=1;entryX=0.367;entryY=-0.033;entryDx=0;entryDy=0;entryPerimeter=0;strokeColor=default;" edge="1" parent="1" source="p10tmFN7mJ3A4gBp0qT7-69" target="p10tmFN7mJ3A4gBp0qT7-68">
          <mxGeometry relative="1" as="geometry" />
        </mxCell>
        <mxCell id="p10tmFN7mJ3A4gBp0qT7-69" value="Id_tipo" style="rounded=0;whiteSpace=wrap;html=1;strokeColor=default;" vertex="1" parent="1">
          <mxGeometry x="-1490" y="170" width="90" height="60" as="geometry" />
        </mxCell>
        <mxCell id="p10tmFN7mJ3A4gBp0qT7-79" style="edgeStyle=orthogonalEdgeStyle;rounded=0;orthogonalLoop=1;jettySize=auto;html=1;entryX=0.5;entryY=0;entryDx=0;entryDy=0;strokeColor=default;" edge="1" parent="1" source="p10tmFN7mJ3A4gBp0qT7-70" target="p10tmFN7mJ3A4gBp0qT7-68">
          <mxGeometry relative="1" as="geometry" />
        </mxCell>
        <mxCell id="p10tmFN7mJ3A4gBp0qT7-70" value="Tipo" style="rounded=1;whiteSpace=wrap;html=1;strokeColor=default;" vertex="1" parent="1">
          <mxGeometry x="-1370" y="170" width="120" height="60" as="geometry" />
        </mxCell>
        <mxCell id="p10tmFN7mJ3A4gBp0qT7-72" style="edgeStyle=orthogonalEdgeStyle;rounded=0;orthogonalLoop=1;jettySize=auto;html=1;entryX=0.642;entryY=0.983;entryDx=0;entryDy=0;entryPerimeter=0;" edge="1" parent="1" source="p10tmFN7mJ3A4gBp0qT7-71" target="p10tmFN7mJ3A4gBp0qT7-48">
          <mxGeometry relative="1" as="geometry" />
        </mxCell>
        <mxCell id="p10tmFN7mJ3A4gBp0qT7-71" value="Tipo_cliente" style="rounded=1;whiteSpace=wrap;html=1;" vertex="1" parent="1">
          <mxGeometry x="-730" y="500" width="120" height="60" as="geometry" />
        </mxCell>
        <mxCell id="p10tmFN7mJ3A4gBp0qT7-73" value="Asigna" style="rhombus;whiteSpace=wrap;html=1;strokeColor=default;" vertex="1" parent="1">
          <mxGeometry x="-1430" y="430" width="80" height="80" as="geometry" />
        </mxCell>
        <mxCell id="p10tmFN7mJ3A4gBp0qT7-80" value="1:1" style="text;html=1;strokeColor=default;fillColor=none;align=center;verticalAlign=middle;whiteSpace=wrap;rounded=0;" vertex="1" parent="1">
          <mxGeometry x="-1450" y="390" width="60" height="30" as="geometry" />
        </mxCell>
        <mxCell id="p10tmFN7mJ3A4gBp0qT7-82" style="edgeStyle=orthogonalEdgeStyle;rounded=0;orthogonalLoop=1;jettySize=auto;html=1;entryX=1;entryY=0.75;entryDx=0;entryDy=0;" edge="1" parent="1" source="p10tmFN7mJ3A4gBp0qT7-81" target="p10tmFN7mJ3A4gBp0qT7-48">
          <mxGeometry relative="1" as="geometry">
            <Array as="points">
              <mxPoint x="-490" y="430" />
              <mxPoint x="-520" y="430" />
              <mxPoint x="-520" y="370" />
              <mxPoint x="-620" y="370" />
            </Array>
          </mxGeometry>
        </mxCell>
        <mxCell id="p10tmFN7mJ3A4gBp0qT7-81" value="Compras acumuladas" style="rounded=1;whiteSpace=wrap;html=1;" vertex="1" parent="1">
          <mxGeometry x="-540" y="390" width="120" height="60" as="geometry" />
        </mxCell>
        <mxCell id="p10tmFN7mJ3A4gBp0qT7-85" style="edgeStyle=orthogonalEdgeStyle;rounded=0;orthogonalLoop=1;jettySize=auto;html=1;entryX=0;entryY=0.5;entryDx=0;entryDy=0;" edge="1" parent="1" source="p10tmFN7mJ3A4gBp0qT7-84" target="p10tmFN7mJ3A4gBp0qT7-48">
          <mxGeometry relative="1" as="geometry" />
        </mxCell>
        <mxCell id="p10tmFN7mJ3A4gBp0qT7-84" value="Fecha_conversion" style="rounded=1;whiteSpace=wrap;html=1;" vertex="1" parent="1">
          <mxGeometry x="-800" y="130" width="120" height="60" as="geometry" />
        </mxCell>
        <mxCell id="p10tmFN7mJ3A4gBp0qT7-86" value="Pedido" style="rounded=0;whiteSpace=wrap;html=1;" vertex="1" parent="1">
          <mxGeometry x="-780" y="650" width="120" height="60" as="geometry" />
        </mxCell>
        <mxCell id="p10tmFN7mJ3A4gBp0qT7-91" style="edgeStyle=orthogonalEdgeStyle;rounded=0;orthogonalLoop=1;jettySize=auto;html=1;entryX=0;entryY=0.5;entryDx=0;entryDy=0;" edge="1" parent="1" source="p10tmFN7mJ3A4gBp0qT7-87" target="p10tmFN7mJ3A4gBp0qT7-86">
          <mxGeometry relative="1" as="geometry" />
        </mxCell>
        <mxCell id="p10tmFN7mJ3A4gBp0qT7-87" value="Num_pedido" style="rounded=1;whiteSpace=wrap;html=1;" vertex="1" parent="1">
          <mxGeometry x="-890" y="710" width="120" height="60" as="geometry" />
        </mxCell>
        <mxCell id="p10tmFN7mJ3A4gBp0qT7-92" style="edgeStyle=orthogonalEdgeStyle;rounded=0;orthogonalLoop=1;jettySize=auto;html=1;entryX=0.5;entryY=1;entryDx=0;entryDy=0;" edge="1" parent="1" source="p10tmFN7mJ3A4gBp0qT7-88" target="p10tmFN7mJ3A4gBp0qT7-86">
          <mxGeometry relative="1" as="geometry" />
        </mxCell>
        <mxCell id="p10tmFN7mJ3A4gBp0qT7-88" value="Hora_fecha" style="rounded=1;whiteSpace=wrap;html=1;" vertex="1" parent="1">
          <mxGeometry x="-730" y="840" width="120" height="60" as="geometry" />
        </mxCell>
        <mxCell id="p10tmFN7mJ3A4gBp0qT7-90" style="edgeStyle=orthogonalEdgeStyle;rounded=0;orthogonalLoop=1;jettySize=auto;html=1;" edge="1" parent="1" source="p10tmFN7mJ3A4gBp0qT7-89" target="p10tmFN7mJ3A4gBp0qT7-86">
          <mxGeometry relative="1" as="geometry" />
        </mxCell>
        <mxCell id="p10tmFN7mJ3A4gBp0qT7-89" value="Id_cliente" style="rounded=1;whiteSpace=wrap;html=1;" vertex="1" parent="1">
          <mxGeometry x="-860" y="840" width="120" height="60" as="geometry" />
        </mxCell>
        <mxCell id="p10tmFN7mJ3A4gBp0qT7-93" value="Detalle_Pedido" style="rounded=0;whiteSpace=wrap;html=1;" vertex="1" parent="1">
          <mxGeometry x="-470" y="650" width="120" height="60" as="geometry" />
        </mxCell>
        <mxCell id="p10tmFN7mJ3A4gBp0qT7-99" style="edgeStyle=orthogonalEdgeStyle;rounded=0;orthogonalLoop=1;jettySize=auto;html=1;" edge="1" parent="1" source="p10tmFN7mJ3A4gBp0qT7-94" target="p10tmFN7mJ3A4gBp0qT7-93">
          <mxGeometry relative="1" as="geometry" />
        </mxCell>
        <mxCell id="p10tmFN7mJ3A4gBp0qT7-94" value="Id_producto" style="rounded=1;whiteSpace=wrap;html=1;" vertex="1" parent="1">
          <mxGeometry x="-290" y="650" width="70" height="60" as="geometry" />
        </mxCell>
        <mxCell id="p10tmFN7mJ3A4gBp0qT7-96" style="edgeStyle=orthogonalEdgeStyle;rounded=0;orthogonalLoop=1;jettySize=auto;html=1;entryX=0.6;entryY=1.032;entryDx=0;entryDy=0;entryPerimeter=0;" edge="1" parent="1" source="p10tmFN7mJ3A4gBp0qT7-95" target="p10tmFN7mJ3A4gBp0qT7-93">
          <mxGeometry relative="1" as="geometry" />
        </mxCell>
        <mxCell id="p10tmFN7mJ3A4gBp0qT7-95" value="Precio_producto" style="rounded=1;whiteSpace=wrap;html=1;" vertex="1" parent="1">
          <mxGeometry x="-460" y="820" width="120" height="60" as="geometry" />
        </mxCell>
        <mxCell id="p10tmFN7mJ3A4gBp0qT7-98" value="Asigna" style="rhombus;whiteSpace=wrap;html=1;" vertex="1" parent="1">
          <mxGeometry x="-590" y="690" width="80" height="80" as="geometry" />
        </mxCell>
        <mxCell id="p10tmFN7mJ3A4gBp0qT7-101" style="edgeStyle=orthogonalEdgeStyle;rounded=0;orthogonalLoop=1;jettySize=auto;html=1;entryX=0.75;entryY=1;entryDx=0;entryDy=0;" edge="1" parent="1" source="p10tmFN7mJ3A4gBp0qT7-100" target="p10tmFN7mJ3A4gBp0qT7-93">
          <mxGeometry relative="1" as="geometry" />
        </mxCell>
        <mxCell id="p10tmFN7mJ3A4gBp0qT7-100" value="&lt;u&gt;Id_pedido&lt;/u&gt;" style="rounded=1;whiteSpace=wrap;html=1;" vertex="1" parent="1">
          <mxGeometry x="-310" y="740" width="120" height="60" as="geometry" />
        </mxCell>
        <mxCell id="p10tmFN7mJ3A4gBp0qT7-102" value="" style="endArrow=none;html=1;rounded=0;exitX=1;exitY=0.5;exitDx=0;exitDy=0;" edge="1" parent="1" source="p10tmFN7mJ3A4gBp0qT7-86" target="p10tmFN7mJ3A4gBp0qT7-98">
          <mxGeometry width="50" height="50" relative="1" as="geometry">
            <mxPoint x="-640" y="660" as="sourcePoint" />
            <mxPoint x="-590" y="610" as="targetPoint" />
          </mxGeometry>
        </mxCell>
        <mxCell id="p10tmFN7mJ3A4gBp0qT7-103" value="" style="endArrow=none;html=1;rounded=0;entryX=0;entryY=0.5;entryDx=0;entryDy=0;" edge="1" parent="1" target="p10tmFN7mJ3A4gBp0qT7-93">
          <mxGeometry width="50" height="50" relative="1" as="geometry">
            <mxPoint x="-530" y="740" as="sourcePoint" />
            <mxPoint x="-480" y="690" as="targetPoint" />
            <Array as="points">
              <mxPoint x="-500" y="710" />
            </Array>
          </mxGeometry>
        </mxCell>
        <mxCell id="p10tmFN7mJ3A4gBp0qT7-105" style="edgeStyle=orthogonalEdgeStyle;rounded=0;orthogonalLoop=1;jettySize=auto;html=1;" edge="1" parent="1" source="p10tmFN7mJ3A4gBp0qT7-104" target="p10tmFN7mJ3A4gBp0qT7-86">
          <mxGeometry relative="1" as="geometry" />
        </mxCell>
        <mxCell id="p10tmFN7mJ3A4gBp0qT7-104" value="Total" style="rounded=1;whiteSpace=wrap;html=1;" vertex="1" parent="1">
          <mxGeometry x="-640" y="790" width="120" height="60" as="geometry" />
        </mxCell>
        <mxCell id="p10tmFN7mJ3A4gBp0qT7-107" style="edgeStyle=orthogonalEdgeStyle;rounded=0;orthogonalLoop=1;jettySize=auto;html=1;" edge="1" parent="1" source="p10tmFN7mJ3A4gBp0qT7-106">
          <mxGeometry relative="1" as="geometry">
            <mxPoint x="-280" y="570.0000000000002" as="targetPoint" />
          </mxGeometry>
        </mxCell>
        <mxCell id="p10tmFN7mJ3A4gBp0qT7-106" value="Producto" style="rounded=0;whiteSpace=wrap;html=1;" vertex="1" parent="1">
          <mxGeometry x="-320" y="470" width="120" height="60" as="geometry" />
        </mxCell>
        <mxCell id="p10tmFN7mJ3A4gBp0qT7-108" value="&lt;u&gt;Id_pedido&lt;/u&gt;" style="rounded=1;whiteSpace=wrap;html=1;" vertex="1" parent="1">
          <mxGeometry x="-390" y="560" width="120" height="60" as="geometry" />
        </mxCell>
        <mxCell id="p10tmFN7mJ3A4gBp0qT7-110" style="edgeStyle=orthogonalEdgeStyle;rounded=0;orthogonalLoop=1;jettySize=auto;html=1;entryX=1;entryY=0.5;entryDx=0;entryDy=0;" edge="1" parent="1" source="p10tmFN7mJ3A4gBp0qT7-109" target="p10tmFN7mJ3A4gBp0qT7-106">
          <mxGeometry relative="1" as="geometry" />
        </mxCell>
        <mxCell id="p10tmFN7mJ3A4gBp0qT7-109" value="Nombre" style="rounded=1;whiteSpace=wrap;html=1;" vertex="1" parent="1">
          <mxGeometry x="-260" y="560" width="120" height="60" as="geometry" />
        </mxCell>
        <mxCell id="p10tmFN7mJ3A4gBp0qT7-113" style="edgeStyle=orthogonalEdgeStyle;rounded=0;orthogonalLoop=1;jettySize=auto;html=1;entryX=0.5;entryY=0;entryDx=0;entryDy=0;" edge="1" parent="1" source="p10tmFN7mJ3A4gBp0qT7-111" target="p10tmFN7mJ3A4gBp0qT7-106">
          <mxGeometry relative="1" as="geometry">
            <Array as="points">
              <mxPoint x="-220" y="430" />
              <mxPoint x="-220" y="450" />
              <mxPoint x="-260" y="450" />
            </Array>
          </mxGeometry>
        </mxCell>
        <mxCell id="p10tmFN7mJ3A4gBp0qT7-111" value="Descripcion" style="rounded=1;whiteSpace=wrap;html=1;" vertex="1" parent="1">
          <mxGeometry x="-200" y="400" width="100" height="60" as="geometry" />
        </mxCell>
        <mxCell id="p10tmFN7mJ3A4gBp0qT7-114" value="Lleva" style="rhombus;whiteSpace=wrap;html=1;" vertex="1" parent="1">
          <mxGeometry x="-500" y="540" width="50" height="60" as="geometry" />
        </mxCell>
        <mxCell id="p10tmFN7mJ3A4gBp0qT7-116" value="" style="endArrow=none;html=1;rounded=0;entryX=0;entryY=0.5;entryDx=0;entryDy=0;exitX=1;exitY=0;exitDx=0;exitDy=0;" edge="1" parent="1" source="p10tmFN7mJ3A4gBp0qT7-114" target="p10tmFN7mJ3A4gBp0qT7-106">
          <mxGeometry width="50" height="50" relative="1" as="geometry">
            <mxPoint x="-430" y="540" as="sourcePoint" />
            <mxPoint x="-380" y="490" as="targetPoint" />
          </mxGeometry>
        </mxCell>
        <mxCell id="p10tmFN7mJ3A4gBp0qT7-118" value="" style="endArrow=none;html=1;rounded=0;entryX=0.5;entryY=0;entryDx=0;entryDy=0;exitX=0.5;exitY=1;exitDx=0;exitDy=0;" edge="1" parent="1" source="p10tmFN7mJ3A4gBp0qT7-114" target="p10tmFN7mJ3A4gBp0qT7-93">
          <mxGeometry width="50" height="50" relative="1" as="geometry">
            <mxPoint x="-570" y="660" as="sourcePoint" />
            <mxPoint x="-520" y="610" as="targetPoint" />
          </mxGeometry>
        </mxCell>
        <mxCell id="p10tmFN7mJ3A4gBp0qT7-119" value="M:1" style="text;html=1;strokeColor=none;fillColor=none;align=center;verticalAlign=middle;whiteSpace=wrap;rounded=0;" vertex="1" parent="1">
          <mxGeometry x="-510" y="510" width="60" height="30" as="geometry" />
        </mxCell>
        <mxCell id="p10tmFN7mJ3A4gBp0qT7-120" value="1:1" style="text;html=1;strokeColor=none;fillColor=none;align=center;verticalAlign=middle;whiteSpace=wrap;rounded=0;" vertex="1" parent="1">
          <mxGeometry x="-595" y="665" width="60" height="30" as="geometry" />
        </mxCell>
        <mxCell id="p10tmFN7mJ3A4gBp0qT7-121" value="Tiene" style="rhombus;whiteSpace=wrap;html=1;" vertex="1" parent="1">
          <mxGeometry x="-1100" y="600" width="40" height="50" as="geometry" />
        </mxCell>
        <mxCell id="p10tmFN7mJ3A4gBp0qT7-122" value="" style="endArrow=none;html=1;rounded=0;exitX=0.5;exitY=0;exitDx=0;exitDy=0;" edge="1" parent="1" source="p10tmFN7mJ3A4gBp0qT7-121" target="p10tmFN7mJ3A4gBp0qT7-48">
          <mxGeometry width="50" height="50" relative="1" as="geometry">
            <mxPoint x="-835" y="600" as="sourcePoint" />
            <mxPoint x="-785" y="550" as="targetPoint" />
          </mxGeometry>
        </mxCell>
        <mxCell id="p10tmFN7mJ3A4gBp0qT7-123" value="" style="endArrow=none;html=1;rounded=0;entryX=0.5;entryY=1;entryDx=0;entryDy=0;exitX=0.5;exitY=0;exitDx=0;exitDy=0;" edge="1" parent="1" source="p10tmFN7mJ3A4gBp0qT7-86" target="p10tmFN7mJ3A4gBp0qT7-121">
          <mxGeometry width="50" height="50" relative="1" as="geometry">
            <mxPoint x="-690" y="650" as="sourcePoint" />
            <mxPoint x="-640" y="600" as="targetPoint" />
          </mxGeometry>
        </mxCell>
        <mxCell id="p10tmFN7mJ3A4gBp0qT7-124" value="1:1" style="text;html=1;strokeColor=none;fillColor=none;align=center;verticalAlign=middle;whiteSpace=wrap;rounded=0;" vertex="1" parent="1">
          <mxGeometry x="-855" y="550" width="60" height="30" as="geometry" />
        </mxCell>
        <mxCell id="p10tmFN7mJ3A4gBp0qT7-127" value="" style="endArrow=none;html=1;rounded=0;strokeColor=default;exitX=0.5;exitY=0;exitDx=0;exitDy=0;" edge="1" parent="1" source="p10tmFN7mJ3A4gBp0qT7-73">
          <mxGeometry width="50" height="50" relative="1" as="geometry">
            <mxPoint x="-1380" y="390" as="sourcePoint" />
            <mxPoint x="-1330" y="340" as="targetPoint" />
          </mxGeometry>
        </mxCell>
        <mxCell id="p10tmFN7mJ3A4gBp0qT7-129" value="" style="endArrow=none;html=1;rounded=0;strokeColor=default;entryX=1;entryY=0.5;entryDx=0;entryDy=0;exitX=0;exitY=0.75;exitDx=0;exitDy=0;" edge="1" parent="1" source="p10tmFN7mJ3A4gBp0qT7-48" target="p10tmFN7mJ3A4gBp0qT7-73">
          <mxGeometry width="50" height="50" relative="1" as="geometry">
            <mxPoint x="-1020" y="520" as="sourcePoint" />
            <mxPoint x="-970" y="470" as="targetPoint" />
          </mxGeometry>
        </mxCell>
      </root>
    </mxGraphModel>
  </diagram>
</mxfile>
